<svg xmlns="http://www.w3.org/2000/svg" viewBox="0 0 48 48" width="24px" height="24px">
  <path fill="#4285F4" d="M24 9.5c3.02 0 5.77 1.06 7.94 2.81l5.93-5.93C33.68 3.06 29.08 1 24 1 14.64 1 6.64 6.97 3 15.16l6.95 5.39C11.35 12.92 17.13 9.5 24 9.5z"/>
  <path fill="#34A853" d="M46.26 24.56c0-1.53-.14-2.99-.39-4.42H24v8.64h12.62c-.61 3.13-2.3 5.77-4.75 7.58l7.44 5.8c4.35-4.02 6.95-9.97 6.95-17.6z"/>
  <path fill="#FBBC05" d="M9.94 28.45c-.47-1.43-.72-2.94-.72-4.45s.25-3.02.72-4.45L3 15.16C1.74 18 1 20.94 1 24s.74 6 2 8.84l6.94-5.39z"/>
  <path fill="#EA4335" d="M24 47c6.5 0 11.94-2.13 15.92-5.77l-7.44-5.8c-2.13 1.5-4.85 2.39-8.48 2.39-6.87 0-12.65-4.42-14.82-10.58L3 32.84C6.64 41.03 14.64 47 24 47z"/>
</svg>
